<svg xmlns="http://www.w3.org/2000/svg" width="24" height="24" fill="none"><mask id="a" width="20" height="24" x="2" y="0" maskUnits="userSpaceOnUse" style="mask-type:alpha"><path fill="#D9D9D9" d="M2 0h20v24H2z"/></mask><g mask="url(#a)"><path fill="#fff" d="M5.714 20c-.438 0-.833-.176-1.185-.529C4.176 19.12 4 18.724 4 18.286V5.714c0-.438.176-.833.529-1.185C4.88 4.176 5.276 4 5.714 4h12.572c.438 0 .833.176 1.185.529.353.352.529.747.529 1.185v12.572c0 .438-.176.833-.529 1.185-.352.353-.747.529-1.185.529H5.714Zm0-3.2a10.923 10.923 0 0 1 3.015-1.371 11.95 11.95 0 0 1 6.542 0c1.077.304 2.081.761 3.015 1.371V5.714H5.714V16.8ZM12 13.457c-.884 0-1.634-.307-2.249-.923-.615-.615-.922-1.364-.922-2.248 0-.884.307-1.634.922-2.25.615-.614 1.365-.922 2.249-.922.884 0 1.634.308 2.249.923.615.615.922 1.365.922 2.249 0 .884-.307 1.633-.922 2.248-.615.616-1.365.923-2.249.923Z"/></g><rect width="16" height="1.5" y="20" fill="#fff" rx=".75" transform="rotate(-90 0 20)"/><rect width="16" height="1.5" x="22.5" y="20" fill="#fff" rx=".75" transform="rotate(-90 22.5 20)"/></svg>