<svg xmlns="http://www.w3.org/2000/svg" width="10" height="16" fill="none"><path fill="#fff" fill-rule="evenodd" d="M5.04.75a5.21 5.21 0 0 0-1.688.27 4.184 4.184 0 0 0-1.403.784 3.6 3.6 0 0 0-.951 1.268A2.734 2.734 0 0 0 .75 4.154c0 .281.085.532.266.734l.003.004c.193.208.459.297.758.297.25 0 .476-.068.666-.216.185-.143.312-.338.388-.57l.002-.01c.118-.415.28-.732.477-.961.208-.24.447-.41.716-.513h.002c.284-.112.6-.17.95-.17.425 0 .8.078 1.132.227.333.15.586.354.77.61l.002.002c.182.247.278.546.278.908 0 .315-.061.573-.173.784l-.002.004a2.248 2.248 0 0 1-.497.635 8.116 8.116 0 0 1-.82.632 8.036 8.036 0 0 0-1.042.842l-.002.001a3.822 3.822 0 0 0-.74.998v.003a2.785 2.785 0 0 0-.275 1.245v.419c0 .308.088.582.282.797.205.226.49.323.815.323.318 0 .599-.093.795-.32.178-.205.266-.462.278-.75v-.24c.01-.28.058-.508.135-.688a1.75 1.75 0 0 1 .415-.547c.21-.195.505-.422.893-.683.662-.443 1.188-.934 1.572-1.476.402-.56.598-1.224.598-1.979 0-.783-.192-1.466-.588-2.038a3.641 3.641 0 0 0-1.582-1.275C6.565.893 5.837.75 5.04.75Zm-.326 11.762c-.25 0-.484.063-.695.19a1.411 1.411 0 0 0-.496.48l-.002.002a1.323 1.323 0 0 0-.192.697c0 .247.064.479.192.69.125.205.291.37.498.489.211.127.444.19.695.19.25 0 .483-.063.694-.19a1.33 1.33 0 0 0 .492-.492c.127-.21.19-.44.19-.687a1.348 1.348 0 0 0-.682-1.179 1.323 1.323 0 0 0-.694-.19Z" clip-rule="evenodd"/></svg>