<svg xmlns="http://www.w3.org/2000/svg" width="16" height="12" fill="none"><rect width="5" height="2" x="11" fill="#F48220" rx="1"/><rect width="5" height="2" x="11" y="5" fill="#F48220" rx="1"/><rect width="5" height="2" x="11" y="10" fill="#F48220" rx="1"/><path fill="#F48220" fill-rule="evenodd" d="M8.707.293a1 1 0 0 1 0 1.414l-4.5 4.5a1 1 0 0 1-1.414 0l-2.5-2.5a1 1 0 0 1 1.414-1.414L3.5 4.086 7.293.293a1 1 0 0 1 1.414 0ZM8.707 5.793a1 1 0 0 1 0 1.414l-4.5 4.5a1 1 0 0 1-1.414 0l-2.5-2.5a1 1 0 0 1 1.414-1.414L3.5 9.586l3.793-3.793a1 1 0 0 1 1.414 0Z" clip-rule="evenodd"/></svg>